<svg width="181" height="199" viewBox="0 0 181 199" fill="none" xmlns="http://www.w3.org/2000/svg">
<path d="M94.7746 161.415C88.8546 167.445 82.9146 173.455 77.0246 179.515C75.7146 180.865 74.6047 181.035 73.3047 179.555C71.5747 177.565 69.7846 175.625 68.0246 173.655C67.8146 173.245 67.5747 172.845 67.3047 172.465C67.0647 171.825 67.0147 171.135 67.2347 170.515C67.6747 169.235 69.9347 158.475 69.8747 157.555C70.7947 149.315 71.0546 141.075 70.4346 132.805C70.1746 129.395 69.3546 125.975 70.3246 122.545C81.2146 122.545 92.0946 122.545 102.985 122.545C103.105 125.845 100.485 125.635 98.5346 125.685C94.0146 125.815 92.3847 128.115 92.5547 132.375C92.7847 138.335 92.0947 144.325 93.2647 150.255C93.4847 151.395 93.6347 152.685 93.1647 153.705C91.7847 156.735 93.0047 159.095 94.7647 161.405L94.7746 161.415Z" fill="#02004A"/>
<path d="M91.8946 80.9751C87.2246 80.9651 82.5446 80.9551 77.8746 80.9451C73.7146 80.8851 69.5546 80.9451 65.3946 80.9151C64.5846 80.9151 63.5946 81.0951 63.1746 80.2051C62.7846 79.3751 63.2446 78.3951 63.9346 78.0351C67.8346 75.9851 68.2846 72.1451 68.3846 68.5751C68.6146 59.6651 70.4746 50.6451 67.2246 41.8851C69.5246 36.0851 66.3646 31.3751 64.1346 26.4751C64.4046 25.8151 64.7146 25.1751 65.2346 24.6651C69.7012 19.4051 74.2679 19.1185 78.9346 23.8051C81.3746 26.2751 83.6646 28.8951 86.0246 31.4451C83.7546 45.1651 84.9046 59.0151 84.5646 72.8051C84.4846 75.9551 85.5246 77.9051 88.8946 78.2851C90.3946 78.4551 91.8746 78.9651 91.8946 80.9551V80.9751Z" fill="#02004A"/>
<path d="M68.0744 172.075C68.0644 172.605 68.0544 173.125 68.0344 173.655C64.2144 173.475 63.1144 177.065 60.9044 179.015C59.0344 180.665 57.7544 181.135 56.1044 179.055C55.6944 178.545 55.1744 178.115 54.7044 177.655C49.0844 172.165 48.9344 172.015 54.6444 166.635C57.2644 164.165 57.1544 162.575 54.5044 160.515C53.4944 159.725 52.8144 158.525 51.9844 157.515C58.2044 154.305 54.9244 148.515 55.4844 143.865C55.7644 141.525 55.3344 138.835 54.6744 136.525C53.4444 132.235 54.6344 128.495 56.1244 124.675C57.2644 121.875 59.7344 122.325 61.9844 122.345C64.7644 122.365 67.5544 122.485 70.3344 122.555C71.6544 123.535 73.0644 124.325 73.0544 126.395C72.9944 135.355 73.0044 144.315 73.0944 153.275C73.1144 155.265 72.2544 156.785 71.1844 158.285C68.5544 159.885 64.2644 157.945 62.8744 162.105C61.5344 166.095 65.8944 167.135 67.0344 169.855C67.3444 170.615 67.6044 171.395 68.0844 172.085L68.0744 172.075Z" fill="#00115F"/>
<path d="M52.7345 73.5751C47.5145 68.4751 42.3145 63.3551 37.0845 58.2751C35.5445 56.7851 34.8045 55.3851 36.9345 53.8151C39.5445 51.9051 38.4545 50.2451 36.5745 48.6451C36.1945 48.3251 35.8745 47.9351 35.5245 47.5751C30.3445 42.2351 30.4645 42.3551 35.6345 37.0051C37.9545 34.6051 40.1745 33.3851 42.3945 36.4051C46.4345 41.9051 50.1845 40.5651 54.1245 36.4951C54.5445 36.0751 55.0445 35.8651 55.6345 35.8451C57.2245 36.0351 58.2345 36.9051 58.6345 38.4651C59.2245 43.8751 60.0345 49.2751 58.0445 54.6351C57.4645 56.1851 57.8445 57.9451 58.4745 59.4951C59.7045 62.5251 59.6045 65.6451 59.2545 68.7851C58.7445 73.3251 57.4845 74.2251 52.7445 73.5651L52.7345 73.5751Z" fill="#0E0074"/>
<path d="M91.8945 80.9751C88.5445 79.4951 83.5745 82.2651 81.7545 79.1851C80.3145 76.7451 82.0145 72.5151 82.1545 69.0651C82.6045 57.8351 81.2645 46.5551 83.1145 35.3551C83.4345 33.4351 83.6045 31.6951 86.0145 31.4651C92.4345 37.0251 98.3945 43.0451 104.014 49.4051C103.444 50.3851 102.354 50.9751 101.494 50.5651C96.7945 48.3251 97.2445 51.4351 96.8045 54.5151C95.8445 61.1951 97.5045 67.7651 97.2845 74.4051C97.1845 77.5351 100.194 77.4551 102.424 77.9851C104.764 78.5351 107.904 77.4751 108.824 81.0251C103.184 81.0151 97.5445 80.9951 91.9045 80.9851L91.8945 80.9751Z" fill="#150035"/>
<path d="M94.7747 161.415C90.1747 163.275 88.0847 162.245 89.4047 158.155C92.0547 149.945 89.6147 141.825 90.0447 133.685C90.5647 124.035 90.1647 124.035 99.6747 123.345C100.795 123.265 101.895 122.825 102.995 122.545C112.055 122.465 121.125 122.365 130.185 122.305C133.105 122.285 133.765 123.145 131.175 125.115C125.795 126.115 120.345 125.725 114.925 125.845C109.525 125.965 108.165 127.325 108.695 132.775C109.105 137.005 109.415 141.295 110.885 145.355C105.505 150.705 100.135 156.065 94.7547 161.415H94.7747Z" fill="#1C0035"/>
<path d="M52.7344 73.5751C56.5444 71.8151 58.5944 67.6651 56.7744 62.9051C54.9744 58.1851 55.3744 54.0551 56.6944 49.3751C57.7044 45.8151 57.1744 41.8151 57.3344 38.0051C61.1244 37.9351 64.3844 40.2851 68.1444 40.3351C73.2744 43.6451 71.5744 49.2051 71.4744 53.4951C71.3244 60.2151 71.5144 67.0251 70.3444 73.7751C69.7444 77.2051 69.7444 80.1851 65.2044 80.0951C69.4244 80.3751 73.6544 80.6551 77.8744 80.9351C72.7644 81.0051 67.6444 81.2351 62.5444 81.1051C57.5844 80.9751 55.7744 76.3951 52.7344 73.5651V73.5751Z" fill="#00115F"/>
<path d="M56.1346 124.665C56.7846 132.435 58.0446 140.165 57.8546 147.995C57.8346 148.805 57.8446 149.665 58.0746 150.425C60.2746 157.675 59.1446 159.005 51.9846 157.505C48.3546 158.165 46.3346 161.015 43.9846 163.405C43.6946 164.385 43.1446 164.945 42.0346 164.605C41.4046 164.085 40.7246 163.605 40.1346 163.035C33.3446 156.535 33.2746 156.465 39.6946 149.715C41.3546 147.965 42.2746 146.595 39.9946 144.905C37.6746 143.185 38.4046 141.775 40.1246 140.135C45.4946 135.015 50.7946 129.825 56.1246 124.665H56.1346Z" fill="#0E0067"/>
<path d="M108.825 81.0251C104.725 80.4951 100.625 79.9551 96.5247 79.4551C94.6347 79.2251 93.2047 78.6051 93.7947 76.3251C95.9947 67.8051 93.2447 59.1951 94.2547 50.6551C94.4147 49.3451 94.1147 47.9751 94.3147 46.6851C94.6947 44.1451 95.9247 43.5651 98.0147 45.3251C99.8747 46.8951 101.165 49.3151 104.025 49.4251C109.665 54.4451 115.055 59.7151 119.985 65.4351C117.145 68.3851 115.265 65.2551 112.975 64.3151C111.875 65.3751 112.435 66.7951 112.255 68.0251C110.995 76.6951 111.645 77.4551 120.135 78.1551C122.115 78.3151 124.715 77.8051 124.895 81.0651L108.835 81.0351L108.825 81.0251Z" fill="#1C0035"/>
<path d="M110.905 145.355C107.485 145.475 106.385 144.165 106.725 140.505C107.125 136.275 106.375 131.945 106.215 127.645C106.145 125.725 106.495 123.665 108.895 123.625C115.695 123.495 122.495 123.555 129.285 123.665C129.925 123.675 130.545 124.605 131.175 125.105C124.415 131.855 117.655 138.605 110.895 145.355H110.905Z" fill="#150200"/>
<path d="M124.885 81.0151C119.585 79.2851 113.875 81.4051 109.465 78.9551C109.465 72.4251 109.575 66.1951 109.395 59.9751C109.345 58.1651 107.505 55.9651 109.275 54.6451C111.375 53.0751 112.295 56.1251 113.625 57.3351C115.685 59.1951 116.945 62.3651 119.975 62.6151C124.255 67.4451 128.565 72.2351 132.775 77.1451C133.505 77.9951 134.885 79.0651 134.015 80.5051C133.605 81.1851 132.245 81.2551 131.315 81.2651C129.165 81.2851 127.025 81.1051 124.875 81.0051L124.885 81.0151Z" fill="#150200"/>
<path d="M55.2246 36.4551C54.8546 36.4751 54.4946 36.4851 54.1246 36.5051C54.2046 33.1951 51.3746 31.8751 49.4946 29.9951C47.1346 27.6351 46.5346 25.9151 49.3446 23.2051C55.3446 17.4251 55.1946 17.2451 61.4646 23.1851C62.5446 24.2051 63.4546 25.4751 65.2246 24.6851C65.1946 25.3051 65.1546 25.9251 65.1246 26.5451C63.0646 31.0951 59.0546 33.6851 55.2246 36.4551Z" fill="#0055DF"/>
<path d="M51.1045 185.405C53.4745 186.635 55.3445 188.435 57.2245 190.305C58.8245 191.895 59.2845 193.365 57.2845 194.755C55.4545 196.025 54.3745 199.775 51.4345 197.725C48.9645 196.005 44.8745 194.265 47.7245 189.725C47.8345 189.545 47.2445 188.935 46.9745 188.525C47.0045 185.715 47.4545 183.445 51.0945 185.415L51.1045 185.405Z" fill="#0055DE"/>
<path d="M50.6846 15.6451C48.9046 18.0251 47.3646 21.2751 44.6346 21.0651C42.1346 20.8751 39.0346 18.1351 39.1646 15.5451C39.2846 13.1151 42.1446 10.0651 44.6946 10.0451C47.3346 10.0151 48.8546 13.3351 50.6846 15.6451Z" fill="#0055DF"/>
<path d="M55.8747 6.19512C54.3647 8.17512 52.8747 11.0751 50.0947 11.4751C46.6847 11.9651 44.0747 8.37512 43.8347 6.21512C43.5547 3.68512 47.1747 1.77512 49.5047 0.0351167C50.1847 -0.474883 55.7547 4.71512 55.8747 6.19512Z" fill="#0055DE"/>
<path d="M51.1046 185.405C49.1246 185.645 48.0746 187.095 46.9846 188.515C46.0146 187.635 44.8946 186.865 44.0946 185.835C43.1946 184.675 40.6646 183.765 42.3546 181.885C43.9246 180.145 45.2746 177.045 47.9746 177.645C50.2346 178.135 52.1246 180.365 53.0346 182.705C53.2546 183.265 51.7846 184.485 51.0946 185.405H51.1046Z" fill="#0055DE"/>
<path d="M34.0746 31.6951C32.7446 33.6451 31.4346 36.1551 29.1846 36.2051C26.9046 36.2551 24.5246 33.7951 24.4946 31.8351C24.4546 29.5751 26.9046 26.9951 29.2546 27.0551C31.2646 27.1051 32.9446 29.5151 34.0846 31.7051L34.0746 31.6951Z" fill="#0055DF"/>
<path d="M31.9445 161.915C34.1845 163.335 36.6345 164.765 36.5545 166.965C36.4845 169.065 34.1745 171.525 32.1245 171.495C29.8345 171.455 27.3745 169.145 27.5145 166.665C27.6345 164.565 30.0245 163.115 31.9345 161.925L31.9445 161.915Z" fill="#0055DE"/>
<path d="M42.0447 164.605C42.6947 164.205 43.3447 163.805 43.9947 163.405C45.3647 164.235 47.0647 164.495 48.1347 165.875C49.1747 167.235 51.1947 168.445 48.9647 170.285C47.7347 171.295 46.8347 174.005 44.7447 172.325C43.3047 171.165 39.9747 170.265 42.1047 167.145C42.7847 166.145 42.8347 165.435 42.0547 164.595L42.0447 164.605Z" fill="#0055DE"/>
<path d="M47.2345 29.5751C46.2345 31.8651 44.9445 34.0251 42.8345 34.1351C40.5845 34.2551 38.8045 31.8551 38.6145 29.9851C38.4445 28.2051 40.5845 26.3151 42.4345 25.9851C44.9445 25.5351 45.6345 28.3151 47.2345 29.5751Z" fill="#0055DF"/>
<path d="M27.3748 53.4251C25.2048 52.1251 22.9748 50.7351 22.9948 48.7751C23.0148 46.8251 25.1048 44.7151 27.1848 44.7351C29.0248 44.7451 30.8548 46.7351 31.0248 48.6351C31.2348 50.9851 28.5848 51.7351 27.3648 53.4251H27.3748Z" fill="#0055DF"/>
<path d="M29.8744 145.465C31.8944 146.215 33.8844 147.625 33.9444 149.435C34.0144 151.495 32.1444 153.695 29.9844 153.795C28.0344 153.895 26.0944 151.755 25.8744 150.035C25.5844 147.755 28.1144 146.705 29.8744 145.465Z" fill="#0055DE"/>
<path d="M25.3047 13.6451C27.1147 14.6751 29.1147 15.9851 29.1147 17.8651C29.1147 19.7551 27.2347 21.7051 25.2447 21.6351C23.3447 21.5651 21.3147 19.7951 21.4247 17.8051C21.5247 15.9351 23.4647 14.6051 25.3047 13.6451Z" fill="#0055DF"/>
<path d="M32.2244 180.815C31.0744 182.445 30.0744 184.755 27.9344 184.445C26.1344 184.175 24.0844 182.465 24.3844 180.345C24.6144 178.685 26.2744 176.775 28.1344 176.885C30.1344 177.005 31.4744 178.785 32.2144 180.815H32.2244Z" fill="#0055DE"/>
<path d="M17.9646 11.9651C16.4646 10.9551 14.3146 10.0651 14.7846 8.07513C15.1346 6.58513 16.4346 4.45513 18.5246 4.91513C20.0146 5.24513 21.6446 6.66513 21.5646 8.39513C21.4746 10.3151 19.8646 11.4151 17.9646 11.9551V11.9651Z" fill="#0054E2"/>
<path d="M58.7445 10.0851C60.6445 10.7251 62.2445 12.1451 62.3945 13.8151C62.5545 15.6451 60.7145 17.2651 58.9345 17.3551C57.0345 17.4551 55.3745 15.6751 55.2945 13.9451C55.2145 12.1351 57.0745 10.9651 58.7445 10.0851Z" fill="#0055DF"/>
<path d="M36.1147 187.925C37.7447 188.805 39.7247 189.715 39.6547 191.645C39.5847 193.435 37.9747 195.205 36.1347 195.235C34.2647 195.275 32.6347 193.495 32.5547 191.715C32.4747 189.825 34.3947 188.795 36.1147 187.915V187.925Z" fill="#0055DE"/>
<path d="M65.3246 184.435C64.8946 186.475 63.5446 188.085 61.7546 188.095C59.9546 188.115 58.2946 186.455 58.2746 184.515C58.2546 182.785 59.8646 181.335 61.4546 181.165C63.4546 180.945 64.4646 182.785 65.3246 184.435Z" fill="#0055DE"/>
<path d="M21.0347 186.405C22.6047 187.415 24.6647 188.435 24.5947 190.115C24.5347 191.705 22.9547 193.695 21.0247 193.655C19.4247 193.615 17.8847 191.905 17.6747 190.385C17.4047 188.395 19.5847 187.655 21.0247 186.405H21.0347Z" fill="#0055DE"/>
<path d="M33.0644 3.21512C34.8844 3.83512 36.5344 5.02512 36.6844 6.77512C36.8544 8.68512 34.9944 10.1451 33.3044 10.3051C31.4144 10.4851 29.7844 8.73512 29.6644 7.01512C29.5344 5.17512 31.4644 4.15512 33.0644 3.21512Z" fill="#0055DF"/>
<path d="M37.2544 21.4551C36.7244 23.3551 35.7144 24.8951 34.0644 24.9651C32.3344 25.0451 30.9544 23.3051 30.7544 21.8751C30.5244 20.1951 32.2744 18.7951 33.8144 18.6251C35.5644 18.4351 36.4044 20.2151 37.2544 21.4551Z" fill="#0055DF"/>
<path d="M39.7947 179.835C39.0147 181.345 38.2047 183.055 36.2747 182.805C34.8047 182.615 33.2747 181.335 33.3147 179.875C33.3547 178.225 34.8847 176.655 36.5047 176.585C38.2147 176.515 39.2347 178.155 39.7947 179.835Z" fill="#0055DE"/>
<path d="M7.90475 183.225C7.61475 184.685 6.66475 185.665 5.30475 185.845C4.01475 186.015 3.04475 184.875 2.75475 183.825C2.30475 182.225 3.73475 181.295 4.93475 181.015C6.40475 180.675 7.21475 182.025 7.91475 183.225H7.90475Z" fill="#0055DE"/>
<path d="M23.8947 39.7751C23.3247 40.9851 22.5847 42.3251 21.2147 42.2451C19.7347 42.1651 18.2747 41.1551 18.5247 39.4551C18.7047 38.2051 19.8447 37.0151 21.2947 37.1651C22.6447 37.3051 23.5147 38.3951 23.9047 39.7751H23.8947Z" fill="#0055DF"/>
<path d="M24.0044 161.435C22.5944 161.075 21.4544 160.195 21.4644 158.825C21.4744 157.455 22.6944 156.375 24.0344 156.375C25.4044 156.375 26.5444 157.595 26.5144 158.895C26.4944 160.165 25.4644 161.215 24.0044 161.435Z" fill="#0055DE"/>
<path d="M16.6546 182.915C15.3546 182.465 14.0946 181.725 13.9546 180.365C13.7846 178.635 15.1746 177.515 16.6746 177.515C17.9546 177.515 19.0746 178.755 19.1246 180.165C19.1746 181.645 17.8946 182.335 16.6546 182.925V182.915Z" fill="#0055DE"/>
<path d="M2.03458 12.6551C3.57458 12.8651 4.63458 13.7251 4.74458 15.1451C4.84458 16.4251 3.78458 17.2551 2.58458 17.5151C1.15458 17.8251 0.394584 16.7051 0.0945835 15.6351C-0.355416 14.0751 0.884584 13.3251 2.03458 12.6551Z" fill="#0055DF"/>
<path d="M23.6648 171.915C22.9648 172.955 22.3848 174.455 20.8148 174.035C19.7748 173.755 18.6748 172.745 18.8748 171.495C19.1048 170.155 20.1048 168.995 21.6448 169.365C22.7248 169.625 23.6248 170.515 23.6648 171.915Z" fill="#0055DE"/>
<path d="M13.6643 21.2451C12.3943 20.7551 11.1443 19.9751 11.0943 18.6251C11.0343 17.0151 12.2943 15.8251 13.8443 15.9151C15.1043 15.9851 16.2743 17.1251 16.1743 18.5751C16.0843 19.9551 14.8943 20.7151 13.6643 21.2551V21.2451Z" fill="#0055DF"/>
<path d="M11.2347 30.9451C12.3647 31.4351 13.3547 32.1451 13.1647 33.4451C12.9747 34.6751 12.0347 35.5551 10.7247 35.2751C9.76466 35.0651 8.89466 34.2651 9.02466 33.1551C9.15466 31.9451 9.93465 31.1051 11.2447 30.9551L11.2347 30.9451Z" fill="#0055DF"/>
<path d="M14.2045 163.345C15.3645 163.785 16.3445 164.475 15.9945 165.825C15.7445 166.785 14.8745 167.605 13.7945 167.405C12.5745 167.185 11.7045 166.255 12.0445 164.945C12.2845 164.025 13.0045 163.235 14.2045 163.335V163.345Z" fill="#0055DE"/>
<path d="M42.2253 115H35.3847V90.7787H49.0247V96.0487L42.2253 95.6353V101.257H47.8053V106.382L42.2253 105.969V115ZM50.765 115V90.7787H57.8124V115H50.765ZM67.2047 115H60.6327V92.7213L59.62 90.7787H67.2254L71.028 98.632L74.6654 106.465L73.6527 97.268V90.7787H80.2454V115H73.942L69.0234 105.431L65.9854 99.438L67.2047 107.374V115ZM94.9184 115L93.9884 111.135H88.1191L87.3337 115H81.2577L87.5611 92.4527L87.0651 90.7787H95.6004L102.503 115H94.9184ZM90.7851 97.888L88.9664 106.919H92.9757L90.7851 97.888ZM109.89 115H103.318V92.7213L102.306 90.7787H109.911L113.714 98.632L117.351 106.465L116.338 97.268V90.7787H122.931V115H116.628L111.709 105.431L108.671 99.438L109.89 107.374V115ZM141.014 113.285L140.828 113.512C140.69 113.65 140.456 113.829 140.125 114.049C139.808 114.256 139.423 114.47 138.968 114.69C138.527 114.897 137.935 115.069 137.191 115.207C136.447 115.358 135.647 115.434 134.793 115.434C132.988 115.434 131.445 115.138 130.164 114.545C128.883 113.939 127.877 113.064 127.147 111.921C126.43 110.763 125.913 109.461 125.597 108.015C125.28 106.554 125.121 104.866 125.121 102.951C125.121 100.912 125.28 99.1556 125.597 97.6813C125.913 96.1933 126.437 94.8913 127.167 93.7753C127.911 92.6456 128.931 91.7982 130.226 91.2333C131.521 90.6684 133.099 90.386 134.959 90.386C135.813 90.386 136.612 90.4618 137.356 90.6133C138.114 90.7649 138.706 90.9371 139.133 91.13C139.574 91.3229 139.967 91.5433 140.311 91.7913C140.669 92.0393 140.89 92.2116 140.973 92.308C141.069 92.4044 141.138 92.4802 141.179 92.5353L140.869 97.2887H137.728L136.653 94.8293C136.405 94.7604 136.199 94.726 136.033 94.726C135.11 94.726 134.401 94.9396 133.905 95.3667C133.409 95.78 133.03 96.5998 132.768 97.826C132.506 99.0384 132.375 100.788 132.375 103.075C132.375 104.439 132.458 105.631 132.623 106.651C132.802 107.67 133.016 108.456 133.264 109.007C133.512 109.544 133.808 109.978 134.153 110.309C134.497 110.639 134.807 110.853 135.083 110.949C135.358 111.032 135.654 111.073 135.971 111.073C136.674 111.073 137.411 110.991 138.183 110.825C138.954 110.646 139.588 110.378 140.084 110.019L141.014 113.285ZM142.917 115V90.7787H149.965V115H142.917ZM159.791 105.638C159.791 107.925 159.963 109.516 160.308 110.412C160.666 111.308 161.286 111.755 162.168 111.755C162.815 111.755 163.304 111.597 163.635 111.28C163.966 110.949 164.214 110.281 164.379 109.275C164.558 108.256 164.648 106.733 164.648 104.708V99.7273C164.648 97.7571 164.455 96.2898 164.069 95.3253C163.683 94.3609 163.05 93.8787 162.168 93.8787C161.286 93.8787 160.666 94.354 160.308 95.3047C159.963 96.2416 159.791 97.9569 159.791 100.451V105.638ZM161.734 115.434C160.59 115.434 159.557 115.331 158.634 115.124C157.724 114.917 156.939 114.628 156.278 114.256C155.616 113.884 155.038 113.409 154.542 112.83C154.06 112.251 153.667 111.631 153.364 110.97C153.074 110.309 152.84 109.537 152.661 108.655C152.482 107.76 152.358 106.871 152.289 105.989C152.22 105.094 152.186 104.088 152.186 102.972C152.186 101.319 152.268 99.8789 152.434 98.6527C152.613 97.4264 152.937 96.276 153.405 95.2013C153.874 94.1129 154.494 93.2311 155.265 92.556C156.05 91.8809 157.056 91.3504 158.282 90.9647C159.522 90.5789 160.983 90.386 162.664 90.386C163.821 90.386 164.861 90.4962 165.784 90.7167C166.708 90.9233 167.5 91.2127 168.161 91.5847C168.822 91.9567 169.394 92.4389 169.876 93.0313C170.372 93.6238 170.765 94.2576 171.054 94.9327C171.358 95.594 171.599 96.3724 171.778 97.268C171.957 98.1636 172.081 99.0522 172.15 99.934C172.219 100.816 172.253 101.815 172.253 102.931C172.253 104.584 172.164 106.024 171.984 107.25C171.805 108.476 171.482 109.627 171.013 110.701C170.545 111.762 169.918 112.63 169.132 113.305C168.347 113.967 167.334 114.49 166.094 114.876C164.868 115.248 163.415 115.434 161.734 115.434Z" fill="#062351"/>
</svg>
