<?xml version="1.0" standalone="no"?>
<!DOCTYPE svg PUBLIC "-//W3C//DTD SVG 20010904//EN"
 "http://www.w3.org/TR/2001/REC-SVG-20010904/DTD/svg10.dtd">
<svg version="1.0" xmlns="http://www.w3.org/2000/svg"
 width="1500.000000pt" height="1602.000000pt" viewBox="0 0 1500.000000 1602.000000"
 preserveAspectRatio="xMidYMid meet">

<g transform="translate(0.000000,1602.000000) scale(0.100000,-0.100000)"
fill="#00eeff" stroke="none">
<path d="M7175 13744 c-22 -2 -96 -9 -165 -15 -928 -82 -1849 -434 -2605 -994
-236 -175 -385 -304 -600 -520 -437 -436 -726 -837 -1000 -1385 -473 -944
-642 -2024 -486 -3092 19 -127 56 -286 86 -368 63 -168 83 -216 125 -299 168
-334 428 -600 800 -818 284 -166 670 -296 951 -319 l82 -7 -60 75 c-232 292
-434 640 -578 993 -284 696 -362 1501 -224 2315 62 367 174 746 330 1110 33
78 147 307 176 355 13 22 66 111 118 197 330 556 794 1058 1325 1434 550 390
1170 658 1822 788 1058 211 2154 61 3108 -427 205 -105 495 -281 620 -377 74
-57 95 -62 40 -10 -149 140 -389 331 -580 461 -652 446 -1402 741 -2170 854
-270 40 -369 47 -720 50 -195 2 -373 1 -395 -1z"/>
<path d="M8085 13043 c-418 -12 -896 -94 -1270 -218 -597 -197 -1133 -505
-1592 -913 -46 -40 -83 -78 -83 -83 0 -4 39 18 88 49 86 58 169 110 260 166
80 49 261 141 382 194 516 228 1061 342 1630 342 573 0 1111 -111 1629 -337
258 -111 429 -210 755 -433 268 -183 645 -553 873 -855 63 -84 215 -312 253
-380 158 -282 225 -424 314 -670 124 -341 186 -617 228 -1005 16 -152 16 -633
0 -780 -57 -507 -175 -930 -382 -1366 -33 -69 -60 -130 -60 -135 0 -5 -4 -9
-8 -9 -7 0 -42 -62 -42 -74 0 -1 24 -8 54 -15 99 -22 241 -133 288 -224 32
-63 48 -134 48 -216 0 -135 -43 -249 -143 -377 l-56 -71 54 -17 c130 -41 258
-169 296 -294 7 -23 17 -42 24 -42 15 0 152 183 252 337 41 65 95 147 118 183
182 280 389 736 512 1125 163 518 243 1035 243 1570 0 264 -15 457 -60 760
-26 176 -130 587 -185 730 -13 33 -36 94 -51 135 -100 276 -298 654 -478 916
-509 743 -1177 1295 -1983 1643 -590 254 -1267 383 -1908 364z"/>
<path d="M6729 12044 c5 -494 -30 -895 -120 -1349 -177 -889 -478 -1606 -1024
-2440 -256 -392 -504 -695 -811 -996 -172 -168 -433 -386 -583 -488 -33 -23
-62 -45 -65 -50 -12 -19 245 -441 269 -441 17 0 321 223 458 337 278 230 658
631 890 941 105 141 117 147 117 66 0 -66 27 -203 59 -301 51 -155 162 -355
288 -515 59 -75 242 -262 288 -295 l30 -21 111 72 c139 90 303 214 468 353
318 267 406 313 606 313 179 0 314 -60 447 -199 115 -120 172 -281 153 -432
-4 -27 -5 -51 -2 -53 9 -10 410 283 567 414 49 41 97 80 105 87 86 67 207 167
248 205 l52 46 -26 74 c-75 208 -222 425 -424 628 -427 427 -1023 689 -1625
717 -260 12 -530 -34 -733 -124 -30 -13 -58 -23 -62 -21 -4 2 40 100 99 218
108 219 148 304 196 420 14 36 32 79 40 95 106 233 298 865 360 1185 9 47 21
99 26 116 l10 32 72 -26 c95 -33 242 -41 341 -18 188 44 347 196 407 388 20
67 38 84 65 59 5 -5 54 -32 109 -61 55 -29 181 -97 280 -150 99 -54 218 -118
265 -142 47 -25 112 -60 145 -78 163 -89 306 -165 420 -225 89 -46 323 -172
460 -247 39 -21 140 -75 226 -120 l156 -82 -33 -69 c-152 -317 -21 -662 289
-762 43 -14 89 -25 103 -25 13 0 24 -4 24 -9 0 -17 -82 -299 -117 -401 -85
-249 -158 -423 -382 -907 -66 -144 -121 -268 -121 -276 0 -9 16 -19 39 -25
108 -27 261 -153 315 -260 l22 -43 46 73 c173 276 354 646 503 1029 192 493
332 1108 371 1629 l6 85 -203 110 c-112 60 -226 121 -254 136 -134 70 -239
127 -325 174 -52 29 -126 67 -165 86 -38 18 -146 74 -240 124 -171 93 -785
422 -990 530 -60 32 -174 94 -253 137 -78 43 -145 78 -147 78 -2 0 -102 53
-222 118 -120 66 -301 163 -403 217 -271 143 -392 208 -515 275 -33 19 -78 42
-100 53 -22 11 -47 25 -55 32 -14 12 -543 295 -551 295 -2 0 -2 -133 0 -296z"/>
<path d="M5374 11309 c14 -75 46 -321 57 -444 16 -166 16 -591 0 -760 -73
-788 -310 -1483 -739 -2170 -168 -270 -321 -462 -565 -712 l-169 -172 24 -50
c12 -28 27 -51 32 -51 26 0 364 274 521 421 114 107 266 263 326 334 19 22 37
42 40 45 10 9 212 262 255 320 158 213 420 628 568 897 218 397 409 876 535
1340 55 200 134 572 129 606 -2 16 -21 28 -83 53 -59 23 -671 269 -924 372
-11 4 -12 -2 -7 -29z"/>
<path d="M4375 10763 c43 -113 114 -471 134 -680 14 -141 14 -503 1 -648 -48
-501 -182 -978 -412 -1455 -78 -163 -94 -193 -218 -400 -35 -58 -63 -114 -62
-125 3 -42 39 -130 53 -130 16 0 228 219 319 330 70 86 204 271 250 345 18 30
52 84 74 120 274 445 483 967 585 1460 55 269 96 637 89 819 l-3 94 -110 40
c-60 21 -177 63 -260 92 -82 30 -213 76 -290 104 -77 28 -144 51 -148 51 -5 0
-6 -8 -2 -17z"/>
<path d="M8164 10016 c-144 -28 -237 -76 -313 -162 -144 -164 -94 -445 122
-679 126 -137 259 -234 440 -320 220 -105 387 -145 599 -145 207 0 336 41 441
138 118 111 146 283 74 457 -49 119 -174 278 -302 384 -109 91 -327 213 -465
261 -194 66 -447 95 -596 66z"/>
<path d="M9625 7236 c-71 -22 -173 -88 -220 -141 -14 -15 -283 -240 -425 -354
-63 -51 -122 -98 -130 -105 -9 -6 -38 -27 -65 -46 -28 -18 -52 -36 -55 -40 -3
-3 -27 -22 -55 -41 -270 -194 -603 -409 -860 -556 -38 -22 -97 -55 -130 -74
-92 -53 -433 -225 -527 -265 -211 -91 -369 -154 -387 -154 -3 0 37 23 89 51
268 145 651 425 937 687 302 276 358 509 166 694 -73 70 -203 115 -296 103
-104 -15 -181 -62 -387 -239 -193 -166 -460 -361 -665 -486 -182 -111 -522
-288 -675 -352 -510 -212 -808 -280 -1230 -280 -743 0 -1414 234 -1932 674
-21 17 -40 30 -42 27 -6 -6 152 -319 225 -447 395 -688 1013 -1339 1684 -1773
159 -103 225 -144 323 -198 620 -343 1267 -547 1987 -628 198 -22 922 -26
1068 -5 48 6 126 17 175 23 478 59 1005 210 1472 421 197 89 398 195 520 274
247 158 315 204 395 262 106 79 262 202 360 286 114 98 461 448 481 486 29 53
27 210 -3 265 -54 101 -148 159 -258 159 -96 0 -143 -25 -268 -143 -198 -188
-314 -288 -508 -439 -198 -154 -465 -340 -639 -445 -41 -24 -100 -61 -130 -81
-60 -40 -98 -45 -123 -18 -37 41 -18 71 88 137 190 119 470 314 658 459 66 50
131 100 146 111 176 129 620 557 763 735 155 193 171 379 44 503 -79 76 -165
94 -273 56 -63 -22 -79 -35 -228 -179 -88 -85 -178 -171 -200 -190 -22 -19
-83 -74 -135 -120 -93 -84 -445 -368 -526 -426 -332 -233 -432 -302 -573 -387
-19 -12 -98 -61 -175 -109 -78 -48 -150 -88 -162 -88 -26 0 -64 40 -64 66 0
11 6 28 13 37 10 13 108 76 259 166 214 126 519 335 698 476 77 60 229 181
250 199 218 178 601 549 734 709 35 43 82 113 103 155 35 71 38 83 38 162 0
75 -3 91 -27 132 -61 102 -152 153 -273 152 -96 -1 -145 -30 -298 -179 -197
-192 -386 -367 -512 -470 -33 -28 -62 -52 -65 -55 -8 -9 -241 -202 -295 -244
-27 -22 -52 -43 -55 -46 -5 -7 -271 -206 -342 -256 -156 -110 -417 -278 -603
-386 -324 -189 -337 -195 -372 -149 -29 38 -14 67 57 108 19 11 96 57 170 103
74 46 176 107 225 137 481 289 885 599 1282 984 151 147 179 195 177 309 -1
94 -26 153 -89 214 -78 77 -204 106 -310 72z"/>
</g>
</svg>
